<svg xmlns="http://www.w3.org/2000/svg" width="30.102" height="36.995"><g fill="#fff"><path d="M23.9 0H10.652l-.673.672L.672 9.979 0 10.652v20.137A6.214 6.214 0 0 0 6.207 37H23.9a6.214 6.214 0 0 0 6.2-6.211V6.206A6.213 6.213 0 0 0 23.9 0Zm3.9 30.789a3.908 3.908 0 0 1-3.9 3.911H6.207A3.909 3.909 0 0 1 2.3 30.789V11.6h6.049A3.257 3.257 0 0 0 11.6 8.347V2.3h12.3a3.908 3.908 0 0 1 3.9 3.905Z" data-name="パス 1"/><path d="M21.317 11.519a3.406 3.406 0 0 1-3.91 0 4.068 4.068 0 0 0-1.928 1.8c-.483.857-.1 2.071.729 2.071h6.308c.834 0 1.213-1.214.73-2.071a4.067 4.067 0 0 0-1.929-1.8Z" data-name="パス 2"/><path d="M19.362 11.325a2.578 2.578 0 0 0 2.579-2.578v-.618a2.58 2.58 0 0 0-5.159 0v.618a2.579 2.579 0 0 0 2.58 2.578Z" data-name="パス 3"/><path d="M6.643 18.814H23.29v1.616H6.643z" data-name="長方形 3"/><path d="M6.643 23.663H23.29v1.617H6.643z" data-name="長方形 4"/><path d="M6.643 28.513h11.654v1.616H6.643z" data-name="長方形 5"/></g></svg>