<svg xmlns="http://www.w3.org/2000/svg" width="378.432" height="43.632" viewBox="0 0 378.432 43.632">
  <path id="パス_441" data-name="パス 441" d="M30.48-27.408a1.535,1.535,0,0,1,1.152-1.728,83.373,83.373,0,0,0,9.552-4.608.926.926,0,0,1,.48-.144,1.705,1.705,0,0,1,.48.1.926.926,0,0,0,.48.144.474.474,0,0,0,.48-.432c0-.432-2.016-3.456-2.544-3.456a1.51,1.51,0,0,0-.72.384,66.285,66.285,0,0,1-8.16,4.32,1.4,1.4,0,0,1-.432.1c-.576,0-.72-.432-.768-.96V-35.9c0-.72,0-1.776.672-2.208.288-.192.528-.288.528-.576,0-.432-.384-.48-.72-.528-.672-.048-3.024-.24-3.648-.24-.432,0-.768.048-.768.576v.528a26.376,26.376,0,0,1,.192,3.888v8.784c0,.864-.1,1.776-.1,2.64,0,3.072,2.256,3.552,4.848,3.552h7.3c1.632,0,3.36.048,4.464-1.392,1.1-1.344,1.872-4.656,1.872-6.432,0-1.2-1.776-1.344-2.688-1.344-.816,0-1.008.144-1.1,1.1-.384,4.464-.96,4.608-2.88,4.608H32.784c-1.728,0-2.3-.144-2.3-2.016ZM10.992-23.28c-.72,0-1.008-.48-1.008-1.152v-7.2c0-1.584.048-2.112.576-2.5.384-.24.624-.336.624-.672,0-.576-.864-.576-1.44-.624-.768-.1-2.064-.24-2.736-.24-.432,0-.768.144-.768.624,0,.144.048.384.048.528.1,1.152.192,2.208.192,3.36v7.44c0,.816-.288,1.152-1.1,1.3-.384.048-.72.048-1.008.1-1.248.1-1.584.144-1.584.672A18.19,18.19,0,0,0,3.456-19.1c.384,1.1.432,1.392.864,1.392a.52.52,0,0,0,.528-.384c.288-.576.384-.576,1.584-.768A172.786,172.786,0,0,0,23.616-22.32c.72-.192,1.152-.288,1.152-1.776,0-.624-.1-1.776-.912-1.776-.336,0-4.176.96-5.136,1.152-.1,0-.384.1-.48.1-.672,0-.912-.528-.912-1.1v-3.36c0-.912.384-1.3,1.344-1.3h.144c1.344,0,2.736.1,3.84.1.864,0,.912-.432.912-1.776,0-1.3-.048-1.728-.912-1.728-1.1,0-2.448.1-3.84.1h-.144c-.912,0-1.344-.336-1.344-1.248-.048-2.112-.048-2.64.576-3.024.384-.24.624-.336.624-.672,0-.576-.912-.576-1.488-.624a28.166,28.166,0,0,0-2.832-.24c-.432,0-.768.1-.768.624a1.969,1.969,0,0,0,.048.528A21.742,21.742,0,0,1,13.68-34.8v9.936c0,.816-.288,1.152-1.1,1.344-.432.1-.912.144-1.344.24ZM22.272-3.264c0,1.632-.1,3.216-.1,4.848,0,1.536.528,1.584,2.064,1.584S26.3,3.12,26.3,1.584c0-1.632-.144-3.264-.144-4.848V-8.592c.048-.24.048-.624.528-.624a.593.593,0,0,1,.384.192,56.914,56.914,0,0,0,9.408,7.1c1.056.624,5.568,3.264,6.624,3.264.912,0,2.16-1.92,2.16-2.64,0-.624-.672-.864-1.488-1.2A57.711,57.711,0,0,1,29.808-11.04a.5.5,0,0,1-.192-.384c0-.336.288-.432.528-.48h8.544c1.872,0,3.792.144,5.664.144,1.008,0,1.056-.48,1.056-1.872,0-1.344-.048-1.824-1.056-1.824-1.872,0-3.792.1-5.664.1H27.5c-.864,0-1.344-.288-1.344-1.2v-.576c0-.912.048-1.488.576-1.872.336-.24.576-.336.576-.672,0-.528-.528-.528-.912-.576-.672-.1-2.928-.288-3.5-.288-.432,0-.864.144-.864.624,0,.192.048.432.048.624a24.41,24.41,0,0,1,.192,2.64c0,.912-.384,1.3-1.3,1.3H9.744c-1.872,0-3.792-.1-5.664-.1-1.008,0-1.056.48-1.056,1.824S3.072-11.76,4.08-11.76c1.872,0,3.792-.144,5.664-.144H18c.384.048.528.288.528.432a.521.521,0,0,1-.192.432,51.536,51.536,0,0,1-13.92,8.4c-.672.288-1.488.528-1.488,1.152,0,.768,1.2,2.784,2.064,2.784a6.273,6.273,0,0,0,1.92-.72A54.119,54.119,0,0,0,21.36-9.12a.715.715,0,0,1,.432-.192c.48,0,.48.576.48.624Zm47.76-19.008a1.272,1.272,0,0,1-1.3,1.344H59.424a1.374,1.374,0,0,1-1.344-1.344v-9.312a1.374,1.374,0,0,1,1.344-1.344h9.312a1.272,1.272,0,0,1,1.3,1.344Zm0,15.888a1.272,1.272,0,0,1-1.3,1.344H59.424A1.374,1.374,0,0,1,58.08-6.384v-9.648a1.342,1.342,0,0,1,1.344-1.344h9.312c.816.1,1.3.48,1.3,1.344Zm3.936-9.648a1.312,1.312,0,0,1,1.344-1.344h9.36a1.312,1.312,0,0,1,1.344,1.344v9.648A1.342,1.342,0,0,1,84.672-5.04h-9.36c-.864-.1-1.344-.528-1.344-1.344Zm1.344-4.9c-.864-.1-1.344-.528-1.344-1.344v-9.312a1.342,1.342,0,0,1,1.344-1.344h9.36a1.342,1.342,0,0,1,1.344,1.344v9.312a1.342,1.342,0,0,1-1.344,1.344ZM85.92.288c0,1.248.384,1.392,2.112,1.392,1.632,0,2.112-.1,2.112-1.392,0-1.824-.144-3.6-.144-5.376V-30.144c0-1.392.1-2.784.1-4.224,0-1.968-.912-2.4-2.736-2.4-1.44,0-2.88.1-4.368.1H61.1c-1.488,0-2.928-.1-4.416-.1-1.968,0-2.64.528-2.64,2.544,0,1.392.048,2.736.048,4.08v24.96c0,1.776-.1,3.552-.1,5.376,0,1.248.432,1.392,2.112,1.392,1.632,0,2.112-.1,2.112-1.392V-.384c0-.672.336-.912.96-.912H84.96c.624,0,.96.24.96.864ZM118.176-20.3c0-.528-3.168-1.632-3.5-1.632-.384,0-.48.288-.576.528a9.34,9.34,0,0,1-1.776,2.88,18.7,18.7,0,0,1-4.752,3.648c-.384.192-.96.48-.96.912,0,.768,1.44,1.968,2.3,1.968,1.152,0,5.9-3.6,7.92-7.2a1.146,1.146,0,0,1,.768-.672C117.84-19.92,118.176-20.064,118.176-20.3Zm-2.64,12.48a1.2,1.2,0,0,1,1.344-1.3h6.144a1.165,1.165,0,0,1,1.3,1.3v1.872a1.2,1.2,0,0,1-1.3,1.344H116.88a1.215,1.215,0,0,1-1.344-1.344Zm12.48-.912v-1.68c0-1.488-.96-1.728-2.208-1.728-.96,0-1.968.048-2.928.048h-5.856c-1.008,0-2.016-.048-3.024-.048-1.2,0-2.16.288-2.16,1.68,0,.576.048,1.152.048,1.728V-.48c0,.96.576.96,1.776.96,1.632,0,1.872-.048,1.872-.96.048-1.1.864-1.152,1.776-1.152h5.568c1.008,0,1.968.048,2.976.048,1.3,0,2.16-.288,2.16-1.776Zm-1.1-21.936a38.382,38.382,0,0,1-1.968,3.984,1.807,1.807,0,0,1-1.968,1.056h-7.344c-.192,0-.432-.1-.432-.336s.24-.336.24-.672a15.22,15.22,0,0,0-1.536-3.5c-.144-.24-.24-.48-.336-.624a.713.713,0,0,1-.1-.432c0-.48.288-.576.72-.624h11.9c.48.048.912.192.912.768A1.13,1.13,0,0,1,126.912-30.672Zm7.44,27.12c0,1.44.1,2.688-1.344,2.688-1.1,0-2.3-.144-3.312-.144-.672,0-.816.432-.816,1.008,0,2.976,1.44,2.88,2.88,2.88,4.608,0,6.384-.816,6.384-4.656,0-1.008-.1-2.016-.1-3.072V-20.16c0-1.152.048-2.3.048-3.5,0-1.776-.864-2.016-2.448-2.016-1.248,0-2.544.048-3.792.048H129.7c-.432,0-.816-.144-.816-.624a.811.811,0,0,1,.144-.48c.528-.912.816-1.584,1.2-2.256.192-.288.336-.336.72-.432.528-.1.864-.192.864-.576,0-.528-1.2-.912-2.5-1.44-.048-.048-.144-.1-.144-.192a.176.176,0,0,1,.192-.192h5.04c1.872,0,3.744.1,5.616.1,1.008,0,1.056-.432,1.056-1.776s-.048-1.776-1.056-1.776c-1.872,0-3.744.1-5.616.1H123.264c-.864,0-1.2-.336-1.3-1.2,0-1.152,0-1.632.576-2.016.384-.24.624-.336.624-.624,0-.432-.624-.48-.96-.528-.768-.048-2.928-.288-3.6-.288-.432,0-.816.1-.816.624,0,.1.048.288.048.384a10.494,10.494,0,0,1,.144,2.448c-.1.864-.384,1.2-1.3,1.2H105.7c-1.872,0-3.744-.1-5.616-.1-1.008,0-1.056.432-1.056,1.776,0,1.3.048,1.776,1.056,1.776,1.872,0,3.744-.1,5.616-.1h4.224a.34.34,0,0,1,.384.336c0,.144-.1.24-.192.384a.789.789,0,0,0-.384.576,2.363,2.363,0,0,0,.288.816c.528.912,1.152,2.016,1.584,2.928a1.4,1.4,0,0,1,.1.432c0,.528-.384.672-.864.72H107.9c-1.248,0-2.448-.048-3.7-.048-1.584,0-2.448.288-2.448,2.064,0,1.2.048,2.352.048,3.552V-4.272c0,1.92-.1,3.84-.1,5.808,0,1.248.48,1.392,2.016,1.392,1.68,0,2.016-.192,2.016-1.44,0-1.92-.1-3.84-.1-5.76v-16.7c0-.912.384-1.344,1.344-1.344h13.152c.96,0,1.344.432,1.344,1.344v3.984c0,2.736,2.064,2.736,4.656,2.736H128.4c1.344,0,3.312.1,4.272-1.008a7.6,7.6,0,0,0,1.3-3.7c0-1.152-1.728-1.344-2.64-1.344-.576,0-.672.192-.864.912-.384,1.68-.432,2.016-2.112,2.016h-1.488c-1.056,0-1.728-.1-1.728-1.344v-2.256c0-.96.384-1.248,1.3-1.344h6.576a1.176,1.176,0,0,1,1.344,1.344Zm35.52-21.984a.946.946,0,0,1,1.008-.96h6.144a.946.946,0,0,1,1.008.96v1.1a.946.946,0,0,1-1.008.96H170.88a.946.946,0,0,1-1.008-.96Zm-4.848-.96a.946.946,0,0,1,1.008.96v1.1a.946.946,0,0,1-1.008.96h-6.1a.907.907,0,0,1-.96-.96v-1.1a.907.907,0,0,1,.96-.96Zm13.3,16.176a.907.907,0,0,1,.96.96v.384a.946.946,0,0,1-.96,1.008h-7.44a.984.984,0,0,1-1.008-1.008V-9.36a.946.946,0,0,1,1.008-.96Zm-8.448-4.032a.984.984,0,0,1,1.008-1.008h7.44a.946.946,0,0,1,.96,1.008v.336a.946.946,0,0,1-.96,1.008h-7.44a.984.984,0,0,1-1.008-1.008Zm13.344.048c0-.672.048-1.344.048-2.016,0-1.68-.816-1.968-2.352-1.968-1.056,0-2.064.048-3.12.048H170.88c-.72,0-1.008-.288-1.008-.96v-.432c0-.672.288-.96,1.008-.96h4.7c1.2,0,2.256.048,3.168.048,1.872,0,3.072-.24,3.072-1.584,0-.384-.048-.672-.048-1.392v-2.928c0-.72.048-1.008.048-1.392,0-1.344-1.152-1.584-3.072-1.584-.912,0-1.968.048-3.168.048h-4.7c-.72,0-1.008-.288-1.008-.96v-.528c0-.672.288-.96,1.008-.96h10.56c1.92,0,3.84.1,5.76.1.96,0,1.008-.432,1.008-1.584,0-1.2-.048-1.632-1.008-1.632-1.92,0-3.84.1-5.76.1H171.216c-.864,0-1.3-.336-1.344-1.248.048-1.152-.048-1.632.576-2.064.288-.24.576-.384.576-.672,0-.528-.672-.528-1.056-.576-.576-.1-2.832-.336-3.36-.336-.384,0-.816.1-.816.624,0,.144.048.288.048.48a22.68,22.68,0,0,1,.192,2.544c-.1.912-.432,1.248-1.344,1.248H154.512c-1.92,0-3.84-.1-5.76-.1-.912,0-1.008.432-1.008,1.632,0,1.1.048,1.584,1.008,1.584,1.92,0,3.84-.1,5.76-.1h10.512c.72,0,1.008.288,1.008.96v.528c0,.672-.288.96-1.008.96h-4.608c-1.2,0-2.3-.048-3.216-.048-1.92,0-3.072.24-3.072,1.584,0,.48.048.72.048,1.392v2.928c0,.672-.048.912-.048,1.392,0,1.344,1.3,1.584,2.352,1.584,1.3,0,2.64-.048,3.936-.048h4.608c.72,0,1.008.288,1.008.96v.432c0,.672-.288.96-1.008.96H154.608c-1.152,0-2.256-.048-3.408-.048-.864,0-.96.24-.96,1.488s.1,1.536.96,1.536c1.152,0,2.256-.1,3.408-.1h10.416c.72,0,1.008.288,1.008,1.008v.336c0,.72-.288,1.008-1.008,1.008H153.6c-1.968,0-3.936-.1-5.9-.1-.864,0-.912.48-.912,1.392s0,1.488.912,1.488c1.968,0,3.936-.1,5.9-.1h11.424c.72,0,1.008.288,1.008.96v.384c0,.72-.288,1.008-1.008,1.008h-8.16c-1.872,0-3.792-.1-5.664-.1-1.056,0-1.1.384-1.1,1.536,0,1.1.048,1.488,1.1,1.488,1.92,0,3.792-.1,5.664-.1h7.824c.96,0,1.248.384,1.344,1.3-.144,2.208,0,3.264-3.168,3.264-1.1,0-2.064-.144-2.544-.144-.672,0-.816.384-.816,1.008,0,2.928,1.2,2.784,2.448,2.784,3.456,0,8.016-.144,8.016-4.656,0-.768-.048-1.488-.048-2.256-.048-.912.432-1.3,1.3-1.3h7.1a.9.9,0,0,1,.912.528c.192.528.336.624,1.968.624,1.488,0,2.112.048,2.112-1.008,0-1.1-.1-2.208-.1-3.36v-.624c0-.912.336-1.344,1.3-1.344,1.632-.048,2.64.1,3.312.1,1.056,0,1.2-.24,1.2-1.44,0-.912,0-1.44-.912-1.44-1.2,0-2.4.1-3.648.048C183.552-13.056,183.264-13.44,183.216-14.3Zm41.712-4.464a1.109,1.109,0,0,1-1.152,1.152H210.96a1.122,1.122,0,0,1-1.2-1.152V-20.4a1.134,1.134,0,0,1,1.2-1.2h12.816a1.122,1.122,0,0,1,1.152,1.2Zm0,7.056a1.109,1.109,0,0,1-1.152,1.152H210.96a1.122,1.122,0,0,1-1.2-1.152v-1.536a1.134,1.134,0,0,1,1.2-1.2h12.816a1.122,1.122,0,0,1,1.152,1.2Zm-1.344,4.368c.96,0,1.344.384,1.344,1.3v1.3c0,3.072,0,3.792-2.64,3.792-1.008,0-2.208-.1-2.784-.1-.672,0-.912.336-.912.96,0,2.688.912,2.928,2.832,2.928,1.824,0,5.136-.192,6.384-1.632.96-1.1,1.008-2.688,1.008-4.08,0-1.152-.048-2.352-.048-3.552V-19.584c0-1.152.048-2.3.048-3.408,0-1.68-.624-2.112-2.208-2.112-1.1,0-2.16.1-3.216.1H212.64c-.384-.048-.768-.192-.768-.672a1.146,1.146,0,0,1,.1-.432c.624-1.056,1.1-2.112,1.68-3.216a1.711,1.711,0,0,1,1.872-1.056h14.64c1.92,0,3.792.1,5.712.1,1.056,0,1.056-.528,1.056-1.872,0-1.44,0-1.872-1.056-1.872-1.92,0-3.792.1-5.712.1H217.008c-.192-.048-.912-.048-.912-.816a1.057,1.057,0,0,1,.048-.384l.384-1.1c.336-.96.384-1.344.912-1.584.288-.144.72-.288.72-.672,0-.528-.72-.672-1.536-.912a21.179,21.179,0,0,0-2.832-.576c-.576,0-.672.432-.768.912a28.834,28.834,0,0,1-1.1,3.984,1.587,1.587,0,0,1-1.776,1.152h-8.352c-1.92,0-3.792-.1-5.712-.1-1.056,0-1.1.384-1.1,1.872,0,1.392.048,1.872,1.1,1.872,1.92,0,3.792-.1,5.712-.1h6.768c.144,0,.864,0,.864.72a.774.774,0,0,1-.144.432A47.177,47.177,0,0,1,196.32-13.68c-.528.432-1.2.864-1.2,1.344,0,.72,1.44,2.352,2.208,2.352,1.248,0,6.672-5.616,7.776-6.768a.593.593,0,0,1,.384-.192c.336,0,.432.288.48.576V-4.416c0,1.872-.1,3.744-.1,5.616,0,1.3.288,1.488,1.968,1.488,1.776,0,2.064-.192,2.064-1.488,0-1.872-.144-3.744-.144-5.616V-6.048c0-.912.432-1.3,1.344-1.3ZM248.976-33.12c0-.912.384-1.344,1.3-1.344h3.744c.432,0,1.152,0,1.152.576,0,.768-3.168,6.24-3.792,7.248a4.971,4.971,0,0,0-.96,1.872c0,.48.384.816.672,1.152,2.4,2.448,4.368,5.616,4.368,9.12,0,1.968-.528,4.32-2.928,4.32a7.19,7.19,0,0,1-1.056-.1c-.144,0-.288-.048-.432-.048-.624,0-.72.48-.72,1.008,0,2.928,1.3,2.88,2.064,2.88,4.992,0,6.912-3.072,6.912-7.776,0-4.08-1.584-6.864-3.936-10.08-.192-.24-.624-.72-.624-1.008a5.123,5.123,0,0,1,.768-1.536c.912-1.488,4.368-7.68,4.368-9.072a2.645,2.645,0,0,0-2.5-2.112c-.768,0-1.968.1-2.88.1h-3.7c-1.152,0-2.256-.048-3.408-.048-1.632,0-2.208.576-2.208,2.208,0,1.2.048,2.4.048,3.6V-5.28c0,2.256-.1,4.512-.1,6.816,0,1.536.336,1.728,1.968,1.728,1.68,0,1.968-.24,1.968-1.728,0-2.256-.1-4.56-.1-6.816Zm27.648,6.72a1.3,1.3,0,0,1,1.3,1.344v2.4a1.291,1.291,0,0,1-1.3,1.3H267.5a1.291,1.291,0,0,1-1.3-1.3v-2.4a1.3,1.3,0,0,1,1.3-1.344Zm-9.12-3.072a1.291,1.291,0,0,1-1.3-1.3v-2.4a1.3,1.3,0,0,1,1.3-1.344h9.12a1.365,1.365,0,0,1,1.3,1.344v2.4a1.291,1.291,0,0,1-1.3,1.3Zm7.632,17.184a21.84,21.84,0,0,1-1.68-4.464,1.057,1.057,0,0,1-.048-.384c0-.624.48-.864,1.056-.864h1.344c1.152,0,2.256.048,3.408.048,1.872,0,2.5-.48,2.5-2.352,0-1.3-.048-2.592-.048-3.888v-7.44c0-1.344.048-2.736.048-4.128,0-1.824-.768-2.256-2.5-2.256-1.1,0-2.256.1-3.408.1H268.32c-1.152,0-2.256-.1-3.408-.1-1.728,0-2.5.432-2.5,2.256,0,1.392.048,2.784.048,4.176V-4.7c0,.912-.288,1.344-1.2,1.536-1.536.288-2.64.432-3.456.576-1.968.288-2.16.336-2.16.768a17.844,17.844,0,0,0,.768,2.448c.384,1.1.528,1.632,1.008,1.632a.667.667,0,0,0,.576-.48c.24-.576.576-.72,1.536-.912C263.808,0,268.176-.864,272.4-2.064c.912-.24,1.3-.288,1.3-1.536,0-.72-.192-2.16-1.1-2.16-.336,0-3.648.912-5.04,1.3a1.329,1.329,0,0,1-.432.048c-.672,0-.912-.48-.912-1.1V-16.656c0-.96.384-1.344,1.344-1.344h.912c.816,0,1.2.24,1.392,1.056a29.416,29.416,0,0,0,7.488,13.968c.96,1.008,5.376,5.376,6.48,5.376,1.056,0,2.256-1.824,2.256-2.64,0-.384-.24-.576-.528-.768a37.292,37.292,0,0,1-7.1-6.336,1.253,1.253,0,0,1-.336-.816,1.224,1.224,0,0,1,.528-.96A54.586,54.586,0,0,0,283.3-13.3a.688.688,0,0,1,.528-.24c.192,0,.432.1.624.1a.468.468,0,0,0,.528-.48c0-.576-1.152-1.632-1.632-2.112-.672-.72-1.056-1.056-1.44-1.056-.288,0-.528.336-.72.576A33.047,33.047,0,0,1,276.72-12a.977.977,0,0,1-.72.288A1.033,1.033,0,0,1,275.136-12.288Zm41.328-8.544c1.536,0,3.264.144,4.608.144,1.008,0,.96-.864.96-1.776,0-.864.1-1.968-.912-1.968-1.536,0-3.072.1-4.656.1h-8.976c-1.536,0-3.072-.1-4.608-.1-.96,0-.912.96-.912,1.728,0,.96-.1,2.016.912,2.016,1.536,0,3.072-.144,4.608-.144Zm-6.72,10.512a.956.956,0,0,1,.864-.528c.336-.048.672-.144.672-.528,0-.336-.48-.576-.96-.768a.245.245,0,0,1-.192-.24c0-.1.048-.144.192-.144h12.912c1.968,0,3.888.1,5.856.1,1.008,0,.96-.72.96-1.872,0-1.1.048-1.92-1.008-1.92-1.92,0-3.84.1-5.808.1H300.576c-1.968,0-3.888-.1-5.808-.1-1.056,0-1.008.768-1.008,1.92,0,1.1-.048,1.872.96,1.872,1.968,0,3.888-.1,5.856-.1h4.608c.192.048.912.048.912.768a1.4,1.4,0,0,1-.1.432c-1.3,2.736-2.64,5.472-4.08,8.16a1.9,1.9,0,0,1-1.728,1.1c-1.2.144-2.448.192-3.648.24-1.1,0-1.2.192-1.2.624,0,.24.528,2.352.624,2.736.24.624.336,1.344.864,1.344a.57.57,0,0,0,.48-.384c.336-.48.336-.528.72-.672,2.88-.144,6.576-.48,12.672-1.056,3.792-.336,11.232-1.2,11.76-1.2A1.834,1.834,0,0,1,324,.432c.336.48.624.864.864,1.2.768,1.152,1.008,1.488,1.584,1.488.672,0,2.736-.912,2.736-1.728,0-.624-3.456-5.04-4.08-5.856-1.3-1.68-2.592-3.312-3.984-4.9a1.45,1.45,0,0,0-1.056-.624c-.768,0-2.64,1.056-2.64,1.776A12.916,12.916,0,0,0,319.44-5.52c.24.24.864.912.864,1.3s-.336.576-.672.624c-4.176.48-8.352.816-12.528,1.1a.637.637,0,0,1-.768-.672,1.13,1.13,0,0,1,.1-.384C307.632-5.76,308.688-8.016,309.744-10.32Zm3.072-23.808a57.527,57.527,0,0,0,11.952,11.184c1.1.768,6.048,4.032,7.152,4.032.864,0,1.872-1.968,1.872-2.784,0-.528-.528-.72-1.1-1.008A50.661,50.661,0,0,1,314.64-37.44a.682.682,0,0,1-.1-.288.42.42,0,0,1,.384-.432c.192-.048.672-.144.672-.576,0-.624-.768-.672-1.344-.864a27.983,27.983,0,0,0-3.024-.768c-.432,0-.576.336-.768.72-4.272,7.3-11.232,13.1-18.576,17.04-.576.336-1.248.576-1.248,1.152,0,.816,1.2,2.592,2.064,2.592.816,0,3.792-1.92,4.56-2.448a56.433,56.433,0,0,0,13.968-12.816,1.069,1.069,0,0,1,.816-.432A.978.978,0,0,1,312.816-34.128Zm58.416,8.64c-.96,0-1.344-.384-1.344-1.344v-8.64c0-1.44.048-2.208.576-2.544.336-.24.576-.384.576-.72,0-.48-.528-.528-.864-.576-.72-.1-3.024-.336-3.6-.336-.432,0-.816.144-.816.624,0,.144.048.336.048.48A37.574,37.574,0,0,1,366-34.368v7.536c0,.96-.384,1.344-1.344,1.344h-1.008c-1.776,0-3.552-.1-5.328-.1-1.056,0-1.056.48-1.056,1.92,0,1.392,0,1.92,1.008,1.92,1.824,0,3.6-.144,5.376-.144h1.008c.96,0,1.344.432,1.344,1.344V-4.032c0,.96-.384,1.344-1.344,1.344h-4.9c-1.776,0-3.6-.1-5.376-.1-1.008,0-1.008.528-1.008,1.92,0,1.44,0,1.92,1.008,1.92,1.776,0,3.6-.1,5.376-.1h15.072c1.776,0,3.552.1,5.376.1,1.008,0,1.008-.48,1.008-1.92,0-1.392.048-1.92-1.008-1.92-1.824,0-3.6.1-5.376.1h-3.6c-.96,0-1.344-.384-1.344-1.344V-20.544c0-.912.384-1.344,1.344-1.344h1.68c1.776,0,3.6.144,5.376.144.96,0,1.056-.432,1.056-1.92s-.048-1.92-1.056-1.92c-1.776,0-3.6.1-5.376.1ZM350.256-14.16c.816.864,4.7,4.848,5.616,4.848.816,0,2.208-1.632,2.208-2.4,0-.432-.48-.768-.768-1.008a65.449,65.449,0,0,1-5.856-4.992,1.333,1.333,0,0,1-.48-.96,1.409,1.409,0,0,1,.336-.912c1.248-1.584,5.376-7.056,5.376-8.832a2.9,2.9,0,0,0-2.736-2.592c-1.056,0-2.112.048-3.168,0-.96-.048-1.3-.384-1.3-1.3v-3.36c0-1.536.048-2.064.576-2.4.432-.288.72-.432.72-.864,0-.576-.816-.624-1.584-.672-.816-.1-2.208-.24-2.976-.24-.432,0-.816.1-.816.624,0,.144.048.336.048.48a18.63,18.63,0,0,1,.192,3.312v3.12c0,.912-.384,1.3-1.344,1.3-1.392,0-2.832-.1-4.224-.1-.912,0-1.008.432-1.008,1.92,0,1.44.1,1.92,1.008,1.92,1.632,0,3.312-.1,4.944-.1h5.664c.72,0,1.248.048,1.248.384,0,.528-1.776,3.024-2.16,3.552a59.319,59.319,0,0,1-10.944,10.992c-.288.24-.672.528-.672.96,0,.672,1.44,2.256,2.256,2.256.96,0,3.456-2.448,4.224-3.168a.608.608,0,0,1,.432-.192c.336,0,.48.336.48.624V-3.84c0,1.824-.1,3.6-.1,5.424,0,1.392.384,1.536,2.016,1.536s2.016-.144,2.016-1.584c0-1.824-.1-3.6-.1-5.376v-9.936c0-.288.1-.576.432-.576A.608.608,0,0,1,350.256-14.16Z" transform="translate(-2.784 40.368)" fill="#fff"/>
</svg>
